# xmcd CD database file
#
# Track frame offsets:
#	150
#	13456
#	27538
#	41228
#	55530
#	68680
#	83657
#	99933
#	118858
#	132472
#	147643
#	159648
#	176512
#	191346
#	209715
#
# Disc length: 3019 seconds
#
# Revision: 7
# Processed by: cddbd v1.5.2PL0 Copyright (c) Steve Scherf et al.
# Submitted via: CDex 2.17
#
DISCID=dd0bc90f
DTITLE=Anne Murray - I'll Be Seeing You
DYEAR=2004
DGENRE=Soft Rock
TTITLE0=All Of Me
TTITLE1=As Time Goes By
TTITLE2=Dream A Little Dream of Me
TTITLE3=I Wonder Who's Kissing Him Now
TTITLE4=I'm Gonna Sit Right Down And Write Myself A Letter
TTITLE5=Over The Rainbow
TTITLE6=Twilight Time
TTITLE7=My Buddy
TTITLE8=After You've Gone
TTITLE9=What'll I Do
TTITLE10=Don't Get Around Much Anymore
TTITLE11=Smile
TTITLE12=You Made Me Love You
TTITLE13=I'll Be Seeing You
TTITLE14=We'll Meet Again
EXTD=YEAR: 2004
EXTT0=
EXTT1=
EXTT2=
EXTT3=
EXTT4=
EXTT5=
EXTT6=
EXTT7=
EXTT8=
EXTT9=
EXTT10=
EXTT11=
EXTT12=
EXTT13=
EXTT14=
PLAYORDER=
